<?xml version="1.0" encoding="UTF-8"?>
<svg id="artwork" xmlns="http://www.w3.org/2000/svg" version="1.1" viewBox="0 0 238.96 70.87">
  <!-- Generator: Adobe Illustrator 29.8.3, SVG Export Plug-In . SVG Version: 2.1.1 Build 3)  -->
  <defs>
    <style>
      .st0 {
        fill: #4285f4;
      }

      .st1 {
        fill: #a6a6a6;
      }

      .st2 {
        stroke: #fff;
        stroke-miterlimit: 10;
        stroke-width: .2px;
      }

      .st2, .st3 {
        fill: #fff;
      }

      .st4 {
        fill: #34a853;
      }

      .st5 {
        fill: #fbbc04;
      }

      .st6 {
        fill: #ea4335;
      }
    </style>
  </defs>
  <g>
    <rect x="-.11" y="0" width="239.17" height="70.87" rx="8.86" ry="8.86"/>
    <path class="st1" d="M230.21,1.42c4.11,0,7.44,3.33,7.44,7.44v53.15c0,4.11-3.33,7.44-7.44,7.44H8.75c-4.11,0-7.44-3.33-7.44-7.44V8.86C1.31,4.75,4.64,1.42,8.75,1.42h221.46M230.21,0H8.75C3.88,0-.11,3.99-.11,8.86v53.15c0,4.87,3.99,8.86,8.86,8.86h221.46c4.87,0,8.86-3.99,8.86-8.86V8.86C239.07,3.99,235.08,0,230.21,0h0Z"/>
    <path class="st3" d="M120.61,38.53c-4.16,0-7.56,3.17-7.56,7.53s3.4,7.53,7.56,7.53,7.56-3.19,7.56-7.53-3.4-7.53-7.56-7.53ZM120.61,50.63c-2.29,0-4.25-1.88-4.25-4.57s1.97-4.57,4.25-4.57,4.25,1.86,4.25,4.57-1.97,4.57-4.25,4.57ZM104.1,38.53c-4.16,0-7.56,3.17-7.56,7.53s3.4,7.53,7.56,7.53,7.56-3.19,7.56-7.53-3.4-7.53-7.56-7.53ZM104.1,50.63c-2.29,0-4.25-1.88-4.25-4.57s1.97-4.57,4.25-4.57,4.25,1.86,4.25,4.57-1.97,4.57-4.25,4.57ZM84.47,40.85v3.19h7.65c-.23,1.81-.83,3.12-1.74,4.02-1.12,1.12-2.85,2.34-5.9,2.34-4.71,0-8.4-3.79-8.4-8.5s3.69-8.5,8.4-8.5c2.53,0,4.39.99,5.76,2.29l2.25-2.25c-1.91-1.82-4.45-3.22-8.03-3.22-6.45,0-11.87,5.24-11.87,11.71s5.42,11.71,11.87,11.71c3.49,0,6.11-1.13,8.17-3.28,2.11-2.11,2.76-5.08,2.76-7.48,0-.74-.05-1.44-.18-2h-10.75v-.02ZM164.75,43.33c-.62-1.68-2.53-4.8-6.45-4.8s-7.1,3.05-7.1,7.53c0,4.22,3.19,7.53,7.48,7.53,3.45,0,5.46-2.11,6.27-3.33l-2.57-1.72c-.85,1.26-2.02,2.09-3.7,2.09s-2.89-.78-3.65-2.29l10.08-4.16-.34-.85h-.02ZM154.47,45.85c-.09-2.91,2.25-4.39,3.93-4.39,1.31,0,2.43.66,2.8,1.59,0,0-6.73,2.8-6.73,2.8ZM146.29,53.15h3.31v-22.15h-3.31v22.15ZM140.86,40.22h-.11c-.74-.89-2.16-1.68-3.97-1.68-3.77,0-7.23,3.31-7.23,7.56s3.45,7.51,7.23,7.51c1.81,0,3.22-.8,3.97-1.72h.11v1.08c0,2.89-1.54,4.43-4.02,4.43-2.02,0-3.28-1.45-3.79-2.68l-2.89,1.2c.83,2,3.03,4.45,6.68,4.45,3.88,0,7.16-2.29,7.16-7.85v-13.54h-3.14s0,1.22,0,1.22ZM137.06,50.63c-2.29,0-4.2-1.91-4.2-4.54s1.91-4.59,4.2-4.59,4.02,1.95,4.02,4.59-1.77,4.54-4.02,4.54ZM180.27,31h-7.92v22.15h3.31v-8.4h4.62c3.67,0,7.26-2.66,7.26-6.87s-3.6-6.87-7.26-6.87h-.02ZM180.34,41.67h-4.69v-7.6h4.69c2.48,0,3.88,2.06,3.88,3.79s-1.4,3.79-3.88,3.79v.02ZM200.78,38.5c-2.39,0-4.87,1.06-5.9,3.38l2.94,1.22c.62-1.22,1.79-1.63,3.01-1.63,1.7,0,3.45,1.03,3.47,2.85v.23c-.6-.34-1.88-.85-3.45-.85-3.17,0-6.38,1.74-6.38,4.98,0,2.96,2.59,4.87,5.49,4.87,2.21,0,3.45-.99,4.22-2.16h.11v1.72h3.19v-8.49c0-3.93-2.94-6.13-6.73-6.13h.04ZM200.37,50.63c-1.08,0-2.59-.55-2.59-1.88,0-1.7,1.88-2.36,3.51-2.36,1.45,0,2.14.32,3.01.74-.25,2.06-2.02,3.51-3.93,3.51v-.02ZM219.12,38.98l-3.79,9.6h-.11l-3.93-9.6h-3.56l5.9,13.43-3.37,7.46h3.45l9.09-20.89h-3.69ZM189.35,53.15h3.31v-22.15h-3.31v22.15Z"/>
    <g>
      <path class="st6" d="M36.6,34.41l-18.87,20.02h0c.58,2.18,2.57,3.77,4.93,3.77.94,0,1.82-.25,2.59-.71l.05-.04,21.22-12.24-9.94-10.82.02.02Z"/>
      <path class="st5" d="M55.68,31h-.02l-9.16-5.33-10.33,9.19,10.36,10.36,9.12-5.26c1.59-.87,2.68-2.55,2.68-4.48s-1.06-3.61-2.66-4.46v-.02Z"/>
      <path class="st0" d="M17.73,16.44c-.11.43-.18.85-.18,1.31v35.38c0,.46.05.89.18,1.31l19.51-19.51s-19.51-18.5-19.51-18.5Z"/>
      <path class="st4" d="M36.74,35.43l9.76-9.76-21.21-12.3c-.76-.46-1.67-.73-2.64-.73-2.36,0-4.34,1.61-4.93,3.77h0l19.01,18.99v.02Z"/>
    </g>
  </g>
  <g>
    <path class="st2" d="M74.5,25.28h-1.31v-3.56h1.05c.92-.8,1.36-2.14,1.35-4.07v-5.26h7.1v9.32h1.19v3.56h-1.31v-2.25h-8.06v2.27ZM76.96,17.66c.02,1.68-.32,3.03-1.01,4.07h5.37v-8.03h-4.36v3.95Z"/>
    <path class="st2" d="M94.52,21.65c-1.05,1.08-2.34,1.61-3.9,1.61s-2.85-.53-3.9-1.61-1.56-2.39-1.56-3.93.51-2.87,1.56-3.93c1.05-1.08,2.34-1.61,3.9-1.61s2.83.53,3.9,1.61c1.05,1.08,1.58,2.39,1.58,3.93s-.51,2.87-1.56,3.93h-.02ZM87.73,20.76c.78.8,1.75,1.19,2.89,1.19s2.11-.39,2.89-1.19c.78-.8,1.19-1.81,1.19-3.05s-.39-2.25-1.19-3.05c-.78-.8-1.75-1.19-2.89-1.19s-2.11.39-2.89,1.19c-.78.8-1.19,1.81-1.19,3.05s.39,2.25,1.19,3.05Z"/>
    <path class="st2" d="M102.97,23.26c-1.56,0-2.87-.53-3.93-1.59s-1.59-2.37-1.59-3.97.53-2.91,1.59-3.97,2.37-1.59,3.93-1.59,2.91.58,3.9,1.74l-.96.92c-.73-.9-1.7-1.35-2.96-1.35-1.15,0-2.14.39-2.94,1.17-.8.78-1.19,1.81-1.19,3.06s.39,2.29,1.19,3.06c.8.78,1.77,1.17,2.94,1.17,1.28,0,2.37-.51,3.26-1.54l.96.96c-.48.58-1.1,1.05-1.82,1.38-.73.34-1.52.51-2.39.51l.02.04Z"/>
    <path class="st2" d="M112.71,23.03h-1.36v-9.32h-2.98v-1.31h7.3v1.31h-2.98v9.32h.02Z"/>
    <path class="st2" d="M125.06,12.4l-4.02,8.96c-.55,1.26-1.38,1.9-2.48,1.9-.32,0-.67-.07-1.06-.23l.35-1.26c.23.12.46.19.71.19.32,0,.57-.05.73-.18s.34-.35.48-.67l.39-.85-3.58-7.85h1.61l2.62,6.09h.05l2.57-6.09h1.61l.02-.02Z"/>
    <path class="st2" d="M126.6,23.03v-10.63h7.69v10.63h-1.36v-9.32h-4.96v9.32h-1.36Z"/>
    <path class="st2" d="M136.72,23.03v-10.63h1.36v4.55h5.31v-4.55h1.36v10.63h-1.36v-4.8h-5.31v4.8h-1.36Z"/>
    <path class="st2" d="M155.91,21.65c-1.05,1.08-2.34,1.61-3.9,1.61s-2.85-.53-3.9-1.61-1.56-2.39-1.56-3.93.51-2.87,1.56-3.93c1.05-1.08,2.34-1.61,3.9-1.61s2.83.53,3.9,1.61c1.05,1.08,1.58,2.39,1.58,3.93s-.51,2.87-1.56,3.93h-.02ZM149.12,20.76c.78.8,1.75,1.19,2.89,1.19s2.11-.39,2.89-1.19c.78-.8,1.19-1.81,1.19-3.05s-.39-2.25-1.19-3.05c-.78-.8-1.75-1.19-2.89-1.19s-2.11.39-2.89,1.19c-.78.8-1.19,1.81-1.19,3.05s.39,2.25,1.19,3.05Z"/>
    <path class="st2" d="M163.05,23.03v-10.63h3.84c.83,0,1.56.28,2.16.81.6.55.92,1.24.92,2.07,0,.51-.12.96-.39,1.33-.27.39-.6.67-1.05.87v.05c.53.18.96.48,1.29.92s.51.94.51,1.52c0,.87-.32,1.59-.96,2.16s-1.4.87-2.27.87h-4.06l-.02.02ZM164.41,16.95h2.48c.51,0,.92-.18,1.24-.51s.46-.71.46-1.12-.14-.78-.46-1.12c-.3-.34-.69-.51-1.19-.51h-2.53v3.26ZM164.41,21.72h2.75c.53,0,.96-.18,1.28-.55s.5-.76.5-1.2-.16-.83-.51-1.19c-.34-.35-.78-.55-1.33-.55h-2.69v3.49h.02Z"/>
  </g>
</svg>